<svg xmlns="http://www.w3.org/2000/svg" viewBox="0 0 24 24" fill="none" stroke="currentColor" stroke-width="1.5" stroke-linecap="square">
  
  <circle cx="5" cy="6" r="1.4"></circle>
  <circle cx="5" cy="12" r="1.4"></circle>
  <circle cx="5" cy="18" r="1.4"></circle>
  <circle cx="12" cy="6" r="1.4"></circle>
  <circle cx="12" cy="12" r="1.4"></circle>
  <circle cx="12" cy="18" r="1.4"></circle>
  <circle cx="19" cy="9" r="1.4"></circle>
  <circle cx="19" cy="15" r="1.4"></circle>
  <g stroke-width="1">
    <line x1="6.4" y1="6" x2="10.6" y2="6"></line>
    <line x1="6.4" y1="6" x2="10.6" y2="12"></line>
    <line x1="6.4" y1="6" x2="10.6" y2="18"></line>
    <line x1="6.4" y1="12" x2="10.6" y2="6"></line>
    <line x1="6.4" y1="12" x2="10.6" y2="12"></line>
    <line x1="6.4" y1="12" x2="10.6" y2="18"></line>
    <line x1="6.4" y1="18" x2="10.6" y2="6"></line>
    <line x1="6.4" y1="18" x2="10.6" y2="12"></line>
    <line x1="6.4" y1="18" x2="10.6" y2="18"></line>
    <line x1="13.4" y1="6" x2="17.6" y2="9"></line>
    <line x1="13.4" y1="12" x2="17.6" y2="9"></line>
    <line x1="13.4" y1="18" x2="17.6" y2="9"></line>
    <line x1="13.4" y1="6" x2="17.6" y2="15"></line>
    <line x1="13.4" y1="12" x2="17.6" y2="15"></line>
    <line x1="13.4" y1="18" x2="17.6" y2="15"></line>
  </g>
</svg>